<svg width="23" height="20" viewBox="0 0 23 20" fill="none" xmlns="http://www.w3.org/2000/svg">
<path d="M13.0561 18.3333H9.61733C9.40186 18.3333 9.19286 18.2684 9.02498 18.1493C8.8571 18.0301 8.74043 17.8639 8.69432 17.6783L8.30982 16.1083C7.79689 15.91 7.31052 15.6621 6.85966 15.3691L5.12419 15.8566C4.91877 15.9144 4.69712 15.9085 4.49606 15.8398C4.29499 15.7711 4.1266 15.6439 4.01886 15.4791L2.29567 12.8533C2.18905 12.6884 2.14903 12.4965 2.18215 12.3089C2.21527 12.1214 2.31958 11.9493 2.478 11.8208L3.82424 10.7375C3.76302 10.2467 3.76302 9.75153 3.82424 9.26079L2.478 8.17996C2.31935 8.05144 2.21491 7.87919 2.18178 7.69145C2.14865 7.5037 2.18881 7.3116 2.29567 7.14663L4.01508 4.51913C4.12282 4.35439 4.29121 4.22712 4.49228 4.15845C4.69335 4.08978 4.91499 4.08384 5.12041 4.14163L6.85588 4.62913C7.08639 4.47913 7.32636 4.33913 7.57388 4.21246C7.81289 4.09413 8.05852 3.98663 8.30982 3.89079L8.69527 2.32246C8.74116 2.13679 8.8576 1.97053 9.02531 1.85125C9.19301 1.73197 9.4019 1.66683 9.61733 1.66663H13.0561C13.2716 1.66683 13.4805 1.73197 13.6482 1.85125C13.8159 1.97053 13.9323 2.13679 13.9782 2.32246L14.3674 3.89163C14.632 3.99496 14.8908 4.11079 15.1412 4.23996C15.3745 4.35913 15.6003 4.48996 15.8176 4.63079L17.554 4.14329C17.7593 4.08572 17.9807 4.09177 18.1816 4.16043C18.3825 4.22909 18.5507 4.35623 18.6584 4.52079L20.3778 7.14829C20.597 7.48746 20.5214 7.91663 20.1955 8.18079L18.8492 9.26413C18.9104 9.75487 18.9104 10.2501 18.8492 10.7408L20.1955 11.8241C20.5214 12.0891 20.597 12.5175 20.3778 12.8566L18.6584 15.4841C18.5506 15.6489 18.3823 15.7761 18.1812 15.8448C17.9801 15.9135 17.7585 15.9194 17.5531 15.8616L15.8176 15.3741C15.3671 15.6669 14.881 15.9146 14.3684 16.1125L13.9782 17.6783C13.9321 17.8638 13.8156 18.0299 13.6479 18.149C13.4802 18.2681 13.2714 18.3331 13.0561 18.3333ZM11.333 6.66663C10.3307 6.66663 9.36954 7.01782 8.66086 7.64294C7.95217 8.26806 7.55404 9.1159 7.55404 9.99996C7.55404 10.884 7.95217 11.7319 8.66086 12.357C9.36954 12.9821 10.3307 13.3333 11.333 13.3333C12.3352 13.3333 13.2964 12.9821 14.0051 12.357C14.7137 11.7319 15.1119 10.884 15.1119 9.99996C15.1119 9.1159 14.7137 8.26806 14.0051 7.64294C13.2964 7.01782 12.3352 6.66663 11.333 6.66663Z" fill="#409835"/>
</svg>
