<svg width="23" height="20" viewBox="0 0 23 20" fill="none" xmlns="http://www.w3.org/2000/svg">
<path d="M12.4727 2.38799C12.1606 2.14063 11.7558 2.00378 11.3362 2.00378C10.9166 2.00378 10.5118 2.14063 10.1997 2.38799L3.96444 7.32999C3.78716 7.47062 3.64538 7.64256 3.54831 7.83465C3.45125 8.02673 3.40106 8.23468 3.401 8.44499V15.5C3.401 15.8978 3.58016 16.2793 3.89907 16.5607C4.21798 16.842 4.65051 17 5.10152 17H7.36887C7.81987 17 8.2524 16.842 8.57131 16.5607C8.89022 16.2793 9.06938 15.8978 9.06938 15.5V11.5C9.06938 11.3674 9.1291 11.2402 9.2354 11.1464C9.34171 11.0527 9.48588 11 9.63622 11H13.0372C13.1876 11 13.3318 11.0527 13.4381 11.1464C13.5444 11.2402 13.6041 11.3674 13.6041 11.5V15.5C13.6041 15.8978 13.7832 16.2793 14.1022 16.5607C14.4211 16.842 14.8536 17 15.3046 17H17.572C18.023 17 18.4555 16.842 18.7744 16.5607C19.0933 16.2793 19.2725 15.8978 19.2725 15.5V8.44499C19.2724 8.23468 19.2222 8.02673 19.1252 7.83465C19.0281 7.64256 18.8863 7.47062 18.709 7.32999L12.4738 2.38799H12.4727Z" fill="#409835"/>
</svg>
