<svg width="23" height="20" viewBox="0 0 23 20" fill="none" xmlns="http://www.w3.org/2000/svg">
<path d="M19.2788 13.6222C18.2668 12.655 17.0386 11.8831 15.6718 11.3552C14.3049 10.8272 12.8289 10.5547 11.3368 10.5547C9.84461 10.5547 8.36862 10.8272 7.00175 11.3552C5.63489 11.8831 4.40677 12.655 3.39474 13.6222C3.23849 13.7746 3.15109 13.9723 3.14911 14.1778V17.5111C3.15242 17.7302 3.25341 17.9393 3.43023 18.0932C3.60704 18.2471 3.84545 18.3333 4.09384 18.3333H18.5797C18.8303 18.3333 19.0706 18.2455 19.2477 18.0892C19.4249 17.933 19.5244 17.721 19.5244 17.5V14.1667C19.5194 13.965 19.4322 13.7718 19.2788 13.6222Z" fill="#409835"/>
<path d="M11.3368 9.4444C13.7717 9.4444 15.7455 7.70329 15.7455 5.55551C15.7455 3.40774 13.7717 1.66663 11.3368 1.66663C8.9019 1.66663 6.92804 3.40774 6.92804 5.55551C6.92804 7.70329 8.9019 9.4444 11.3368 9.4444Z" fill="#409835"/>
</svg>
