<svg width="20" height="20" viewBox="0 0 20 20" fill="none" xmlns="http://www.w3.org/2000/svg">
<path d="M14.6174 11.1542V13.8882C14.6174 17.5336 13.1398 18.9917 9.44583 18.9917H5.93655C2.24256 18.9917 0.764966 17.5336 0.764966 13.8882V10.4251C0.764966 6.77976 2.24256 5.32162 5.93655 5.32162H8.70704" stroke="#BBBBBB" stroke-width="1.5" stroke-linecap="round" stroke-linejoin="round"/>
<path d="M14.6169 11.1542H11.6617C9.44533 11.1542 8.70654 10.4251 8.70654 8.23791V5.32162L14.6169 11.1542Z" stroke="#BBBBBB" stroke-width="1.5" stroke-linecap="round" stroke-linejoin="round"/>
<path d="M9.62991 0.764998H13.3239" stroke="#BBBBBB" stroke-width="1.5" stroke-linecap="round" stroke-linejoin="round"/>
<path d="M5.3822 3.49902C5.3822 1.98619 6.61969 0.764998 8.15269 0.764998H10.5723" stroke="#BBBBBB" stroke-width="1.5" stroke-linecap="round" stroke-linejoin="round"/>
<path d="M19.235 6.233V11.8742C19.235 13.2868 18.0714 14.4351 16.64 14.4351" stroke="#BBBBBB" stroke-width="1.5" stroke-linecap="round" stroke-linejoin="round"/>
<path d="M19.2346 6.23304H16.4641C14.3862 6.23304 13.6936 5.54954 13.6936 3.49902V0.764998L19.2346 6.23304Z" stroke="#BBBBBB" stroke-width="1.5" stroke-linecap="round" stroke-linejoin="round"/>
</svg>
