<svg width="23" height="20" viewBox="0 0 23 20" fill="none" xmlns="http://www.w3.org/2000/svg">
<path d="M11.3368 1.875C6.24939 1.875 2.12564 5.5125 2.12564 9.99875C2.12564 11.2956 2.47 12.5225 3.0836 13.6112L1.8819 16.7906C1.51983 17.7481 2.5281 18.67 3.62564 18.3844L7.48935 17.3825C8.69598 17.872 10.0087 18.1247 11.3368 18.1231C16.4234 18.1231 20.5479 14.4856 20.5479 9.99875C20.5479 5.5125 16.4227 1.875 11.3368 1.875ZM7.79331 8.74937C7.79331 8.58361 7.86796 8.42464 8.00084 8.30743C8.13372 8.19022 8.31394 8.12437 8.50186 8.12437H14.1702C14.3582 8.12437 14.5384 8.19022 14.6713 8.30743C14.8041 8.42464 14.8788 8.58361 14.8788 8.74937C14.8788 8.91513 14.8041 9.07411 14.6713 9.19132C14.5384 9.30853 14.3582 9.37437 14.1702 9.37437H8.50186C8.31394 9.37437 8.13372 9.30853 8.00084 9.19132C7.86796 9.07411 7.79331 8.91513 7.79331 8.74937ZM8.50186 10.6244H12.7531C12.848 10.6217 12.9426 10.6359 13.0311 10.6661C13.1196 10.6963 13.2004 10.7419 13.2686 10.8002C13.3368 10.8585 13.391 10.9282 13.428 11.0053C13.465 11.0824 13.4841 11.1653 13.4841 11.2491C13.4841 11.3328 13.465 11.4157 13.428 11.4928C13.391 11.5699 13.3368 11.6397 13.2686 11.6979C13.2004 11.7562 13.1196 11.8018 13.0311 11.832C12.9426 11.8622 12.848 11.8764 12.7531 11.8737H8.50186C8.31394 11.8737 8.13372 11.8079 8.00084 11.6907C7.86796 11.5735 7.79331 11.4145 7.79331 11.2487C7.79331 11.083 7.86796 10.924 8.00084 10.8068C8.13372 10.6896 8.31394 10.6237 8.50186 10.6237V10.6244Z" fill="#409835"/>
</svg>
